<svg width="32" height="40" viewBox="0 0 32 40" fill="none" xmlns="http://www.w3.org/2000/svg">
<g clip-path="url(#clip0_177_1963)">
<g clip-path="url(#clip1_177_1963)">
<path d="M8.04591 38.4833C7.2507 38.2184 6.45548 37.6885 5.92534 36.6287C5.39519 36.0988 4.86505 35.304 4.06983 34.2442C3.00954 32.6545 1.94925 30.535 1.15404 28.4154C0.358822 26.0309 0.09375 23.6464 0.09375 21.2619C0.09375 18.6125 0.623894 16.4929 1.68418 14.6383C2.4794 13.0487 3.80476 11.9889 5.13012 10.9291C6.45548 10.1343 8.04591 9.6044 9.63634 9.6044C10.1665 9.6044 10.6966 9.6044 11.4918 9.86934C12.022 9.86934 12.5521 10.1343 13.3474 10.3992C14.1426 10.6642 14.6727 10.9291 14.9378 10.9291C15.4679 11.1941 15.9981 11.1941 16.2631 11.1941C16.5282 11.1941 16.7933 11.1941 17.3234 10.9291C17.5885 10.9291 18.1187 10.6642 18.6488 10.3992C19.1789 10.1343 19.7091 9.86934 20.2392 9.86934C20.7694 9.86934 21.2995 9.6044 21.8297 9.6044C22.3598 9.6044 23.155 9.33945 23.6852 9.6044C24.7455 9.6044 25.8057 9.86934 26.866 10.3992C28.4565 10.9291 29.7818 12.2538 30.8421 13.5786C30.577 13.5786 30.0469 13.8435 29.7818 14.3734C28.9866 15.1682 28.1914 15.9631 27.6612 16.7579C27.1311 18.0826 26.601 19.4073 26.601 20.997C26.601 22.8516 27.1311 24.4413 27.9263 25.766C28.4565 26.8258 29.5167 27.6206 30.312 28.1505C31.1072 28.4154 31.6373 28.6804 31.9024 28.9453C31.9024 29.4752 31.6373 30.27 31.3723 30.535C30.8421 32.1247 30.0469 33.1844 29.2517 34.5092C28.4565 35.5689 27.9263 36.3638 27.6612 36.6287C26.866 37.4235 26.3359 38.2184 25.5407 38.4833C25.0105 39.0132 24.2153 39.2782 23.155 39.2782C22.6249 39.2782 22.0947 39.2782 21.5646 39.0132C21.2995 39.0132 20.7694 38.7483 20.2392 38.4833C19.444 38.2184 19.1789 37.9534 18.6488 37.9534C18.1187 37.6885 17.3234 37.6885 16.7933 37.6885C16.2631 37.6885 15.4679 37.6885 14.9378 37.9534C14.4076 37.9534 13.8775 38.2184 13.3474 38.4833C12.5521 38.7483 12.2871 39.0132 12.022 39.0132C11.4918 39.2782 10.9617 39.2782 10.4316 39.2782C9.63634 39.2782 8.84113 39.0132 8.04591 38.4833ZM19.1789 8.27968C18.1187 8.80957 17.0584 9.07451 15.9981 9.07451C15.733 8.01473 15.9981 6.95496 16.5282 5.63023C17.0584 4.57046 17.3234 3.77562 18.1187 2.98079C18.9139 2.18596 19.7091 1.39113 20.7694 0.861239C21.8297 0.331351 22.8899 0.0664062 23.9502 0.0664062C23.9502 1.12618 23.6852 2.18596 23.4201 3.51068C23.155 4.57046 22.3598 5.36529 21.8297 6.16012C21.0344 7.2199 20.2392 7.74979 19.1789 8.27968Z" fill="#555555"/>
</g>
</g>
<defs>
<clipPath id="clip0_177_1963">
<rect width="32" height="39.3443" fill="white"/>
</clipPath>
<clipPath id="clip1_177_1963">
<rect width="32.0737" height="39.4767" fill="white" transform="translate(0.09375 0.0664062)"/>
</clipPath>
</defs>
</svg>
