<svg width="32" height="33" viewBox="0 0 32 33" fill="none" xmlns="http://www.w3.org/2000/svg">
<g clip-path="url(#clip0_177_1958)">
<path d="M32 16.6709C32 7.83437 24.8366 0.670935 16 0.670935C7.16344 0.670935 0 7.83437 0 16.6709C0 24.657 5.85097 31.2762 13.5 32.4766V21.2959H9.4375V16.6709H13.5V13.1459C13.5 9.13593 15.8887 6.92093 19.5434 6.92093C21.294 6.92093 23.125 7.23343 23.125 7.23343V11.1709H21.1074C19.1198 11.1709 18.5 12.4043 18.5 13.6696V16.6709H22.9375L22.2281 21.2959H18.5V32.4766C26.149 31.2762 32 24.657 32 16.6709Z" fill="#1877F2"/>
<path d="M22.2281 21.2969L22.9375 16.6719H18.5V13.6705C18.5 12.4052 19.1198 11.1719 21.1074 11.1719H23.125V7.23438C23.125 7.23438 21.294 6.92188 19.5434 6.92188C15.8887 6.92188 13.5 9.13688 13.5 13.1469V16.6719H9.4375V21.2969H13.5V32.4775C14.3146 32.6053 15.1495 32.6719 16 32.6719C16.8505 32.6719 17.6854 32.6053 18.5 32.4775V21.2969H22.2281Z" fill="white"/>
</g>
<defs>
<clipPath id="clip0_177_1958">
<rect width="32" height="32" fill="white" transform="translate(0 0.671875)"/>
</clipPath>
</defs>
</svg>
