<svg width="32" height="33" viewBox="0 0 32 33" fill="none" xmlns="http://www.w3.org/2000/svg">
<path d="M30.08 17.0059C30.08 15.9659 29.9867 14.9659 29.8133 14.0059H16V19.6792H23.8933C23.5533 21.5125 22.52 23.0659 20.9667 24.1059V27.7859H25.7067C28.48 25.2325 30.08 21.4725 30.08 17.0059Z" fill="#4285F4"/>
<path d="M15.9973 31.339C19.9573 31.339 23.2773 30.0257 25.704 27.7857L20.964 24.1057C19.6506 24.9857 17.9706 25.5057 15.9973 25.5057C12.1773 25.5057 8.94396 22.9257 7.79062 19.459H2.89062V23.259C5.30396 28.0523 10.264 31.339 15.9973 31.339Z" fill="#34A853"/>
<path d="M7.79594 19.4593C7.50261 18.5793 7.33594 17.6393 7.33594 16.6726C7.33594 15.7059 7.50261 14.7659 7.79594 13.8859V10.0859H2.89594C1.86927 12.1297 1.33503 14.3854 1.33594 16.6726C1.33594 19.0393 1.90261 21.2793 2.89594 23.2593L7.79594 19.4593Z" fill="#FBBC05"/>
<path d="M15.9973 7.83919C18.1506 7.83919 20.084 8.57919 21.604 10.0325L25.8106 5.82586C23.2706 3.45919 19.9506 2.00586 15.9973 2.00586C10.264 2.00586 5.30396 5.29253 2.89062 10.0859L7.79062 13.8859C8.94396 10.4192 12.1773 7.83919 15.9973 7.83919Z" fill="#EA4335"/>
</svg>
